<svg xmlns="http://www.w3.org/2000/svg" viewBox="0 0 234.6203 58.6982">
  <path d="M57.0777,58.9768V36.2929a5.6712,5.6712,0,0,0-2.8355-4.9054L34.3937,20.0456a5.67,5.67,0,0,0-5.6709,0L8.8743,31.3875a5.6712,5.6712,0,0,0-2.8355,4.9054V58.9768a5.6709,5.6709,0,0,0,2.8355,4.9054l19.8485,11.342a5.6709,5.6709,0,0,0,5.6709,0l19.8485-11.342A5.6709,5.6709,0,0,0,57.0777,58.9768Z" transform="translate(-5.0388 -18.2858)" style="fill: none;stroke: #fff;stroke-linecap: round;stroke-linejoin: round;stroke-width: 2px"/>
  <g>
    <path d="M66.93,62.209V33.7778h2.34V62.209Z" transform="translate(-5.0388 -18.2858)" style="fill: #fff"/>
    <path d="M77.3032,62.209V41.3828h1.8721l.2729,3.1983h.0782a14.8458,14.8458,0,0,1,3.1006-2.6329,6.3972,6.3972,0,0,1,3.4511-1.0722A5.817,5.817,0,0,1,89.92,42.0068a6.0262,6.0262,0,0,1,1.8916,3.0811,20.76,20.76,0,0,1,3.51-3.0615,6.293,6.293,0,0,1,3.5488-1.15,5.5163,5.5163,0,0,1,4.6411,2.0083q1.5594,2.01,1.56,6.0259V62.209h-2.2622V49.2222a8.3458,8.3458,0,0,0-1.0918-4.7779,3.8757,3.8757,0,0,0-3.3931-1.5405,5.2132,5.2132,0,0,0-2.8467.936,17.114,17.114,0,0,0-3.1591,2.8081V62.209H90.0562V49.2222a8.3458,8.3458,0,0,0-1.0918-4.7779,3.8758,3.8758,0,0,0-3.3931-1.5405,5.4462,5.4462,0,0,0-2.8667.936,14.5886,14.5886,0,0,0-3.1392,2.8081V62.209Z" transform="translate(-5.0388 -18.2858)" style="fill: #fff"/>
    <path d="M112.5591,62.209V41.3828h1.8721l.2729,3.1983h.0781a14.8508,14.8508,0,0,1,3.1006-2.6329,6.3978,6.3978,0,0,1,3.4512-1.0722,5.817,5.817,0,0,1,3.8418,1.1308,6.0269,6.0269,0,0,1,1.8916,3.0811,20.7594,20.7594,0,0,1,3.51-3.0615,6.2935,6.2935,0,0,1,3.5489-1.15,5.5186,5.5186,0,0,1,4.6416,2.0083q1.5585,2.01,1.56,6.0259V62.209h-2.2626V49.2222a8.3378,8.3378,0,0,0-1.0918-4.7779,3.8749,3.8749,0,0,0-3.3926-1.5405,5.2153,5.2153,0,0,0-2.8467.936,17.1335,17.1335,0,0,0-3.1592,2.8081V62.209H125.312V49.2222a8.345,8.345,0,0,0-1.0918-4.7779,3.8757,3.8757,0,0,0-3.3931-1.5405,5.4464,5.4464,0,0,0-2.8667.936,14.5907,14.5907,0,0,0-3.1391,2.8081V62.209Z" transform="translate(-5.0388 -18.2858)" style="fill: #fff"/>
    <path d="M155.498,62.7158a8.9639,8.9639,0,0,1-4.66-1.2861,9.2271,9.2271,0,0,1-3.4522-3.7246,12.4338,12.4338,0,0,1-1.2871-5.87,12.6393,12.6393,0,0,1,1.2871-5.9278,9.1886,9.1886,0,0,1,3.4522-3.7441,9.0152,9.0152,0,0,1,11.27,1.5991,9.973,9.973,0,0,1,2.0478,3.4512,13.5384,13.5384,0,0,1,.7413,4.6216,12.2835,12.2835,0,0,1-1.3067,5.87,9.4645,9.4645,0,0,1-3.4326,3.7246A8.8341,8.8341,0,0,1,155.498,62.7158Zm0-1.9892a6.2026,6.2026,0,0,0,3.627-1.1114,7.4675,7.4675,0,0,0,2.5156-3.1191,12.4153,12.4153,0,0,0,0-9.3608,7.6242,7.6242,0,0,0-2.5156-3.1392,6.3792,6.3792,0,0,0-7.2539,0,7.4717,7.4717,0,0,0-2.4961,3.1392,12.6656,12.6656,0,0,0,0,9.3608,7.32,7.32,0,0,0,2.4961,3.1191A6.1981,6.1981,0,0,0,155.498,60.7266Z" transform="translate(-5.0388 -18.2858)" style="fill: #fff"/>
    <path d="M176.2461,62.7158a5.578,5.578,0,0,1-3.2178-.8,4.3218,4.3218,0,0,1-1.6377-2.2422,10.47,10.47,0,0,1-.4873-3.3535V43.333h-3.1982V41.6172l3.2763-.2344.2725-5.9668h1.9111v5.9668h5.9668v1.95H173.165V56.4766a6.1626,6.1626,0,0,0,.6827,3.1191q.6811,1.17,2.788,1.17a5.328,5.328,0,0,0,1.2872-.1758,6.0813,6.0813,0,0,0,1.248-.4472l.5459,1.7929q-.8966.3135-1.8135.5469A6.75,6.75,0,0,1,176.2461,62.7158Z" transform="translate(-5.0388 -18.2858)" style="fill: #fff"/>
    <path d="M191.5723,62.7158a9.3053,9.3053,0,0,1-8.4043-5.03,12.1562,12.1562,0,0,1-1.3067-5.85,13.2249,13.2249,0,0,1,.7412-4.563A10.237,10.237,0,0,1,184.65,43.82a9.2982,9.2982,0,0,1,2.9443-2.1836,7.9642,7.9642,0,0,1,3.3926-.7607,7.78,7.78,0,0,1,4.29,1.15,7.4521,7.4521,0,0,1,2.77,3.3149,12.6287,12.6287,0,0,1,.9746,5.2066c0,.2866-.0069.5654-.0195.8388a6.3324,6.3324,0,0,1-.0977.8379H184.1631a10.6022,10.6022,0,0,0,1.0332,4.4268,7.6063,7.6063,0,0,0,2.6328,3.042,6.9594,6.9594,0,0,0,3.9385,1.1113,8.6551,8.6551,0,0,0,3.0029-.4873,10.9107,10.9107,0,0,0,2.4961-1.3067l.8975,1.6768a17.5984,17.5984,0,0,1-2.8086,1.4043A10.1967,10.1967,0,0,1,191.5723,62.7158Zm-7.4092-12.3237H196.916a8.6273,8.6273,0,0,0-1.6-5.6553,5.3515,5.3515,0,0,0-4.3291-1.9106,5.9935,5.9935,0,0,0-3.1582.8969,7.0882,7.0882,0,0,0-2.457,2.5738A9.97,9.97,0,0,0,184.1631,50.3921Z" transform="translate(-5.0388 -18.2858)" style="fill: #fff"/>
    <path d="M212.32,62.7158a9.22,9.22,0,0,1-4.8359-1.2861,9.0078,9.0078,0,0,1-3.3936-3.7246,12.75,12.75,0,0,1-1.248-5.87,12.1825,12.1825,0,0,1,1.3457-5.9278,9.54,9.54,0,0,1,3.5293-3.7441,9.2067,9.2067,0,0,1,4.7588-1.2871,7.5085,7.5085,0,0,1,3.5683.78,12.002,12.002,0,0,1,2.5156,1.7553l-1.2871,1.56a10.023,10.023,0,0,0-2.1259-1.5015,5.4934,5.4934,0,0,0-2.5938-.605,6.5192,6.5192,0,0,0-3.7627,1.1314,7.71,7.71,0,0,0-2.6133,3.1392,10.8249,10.8249,0,0,0-.955,4.7,11.1229,11.1229,0,0,0,.916,4.6611,7.3417,7.3417,0,0,0,2.5547,3.1191,7.0573,7.0573,0,0,0,6.7861.4493,9.9165,9.9165,0,0,0,2.418-1.6387l1.1308,1.6a12.7507,12.7507,0,0,1-3.042,1.93A8.7591,8.7591,0,0,1,212.32,62.7158Z" transform="translate(-5.0388 -18.2858)" style="fill: #fff"/>
    <path d="M224.0205,62.209V31.2041h2.2617v8.853l-.039,4.563A18.004,18.004,0,0,1,229.5,41.9482a7.0405,7.0405,0,0,1,3.8408-1.0722,5.64,5.64,0,0,1,4.7774,2.0083q1.541,2.01,1.541,6.0259V62.209h-2.2617V49.2222a8.4624,8.4624,0,0,0-1.0733-4.7779,3.9933,3.9933,0,0,0-3.5293-1.5405,5.8144,5.8144,0,0,0-3.2363.936,20.1655,20.1655,0,0,0-3.2764,2.8081V62.209Z" transform="translate(-5.0388 -18.2858)" style="fill: #fff"/>
  </g>
</svg>
